<?xml version="1.0" encoding="utf-8"?>
<!-- Generator: Adobe Illustrator 19.2.0, SVG Export Plug-In . SVG Version: 6.00 Build 0)  -->
<svg version="1.1" id="Layer_1" xmlns="http://www.w3.org/2000/svg" xmlns:xlink="http://www.w3.org/1999/xlink" x="0px" y="0px"
	 viewBox="0 0 960 960" style="enable-background:new 0 0 960 960;" xml:space="preserve">
<style type="text/css">
	.st0{fill:#F9E8CA;}
	.st1{fill:#E2CDAA;}
	.st2{fill:none;stroke:#DDC59E;stroke-width:14.9069;stroke-miterlimit:10;}
	.st3{fill:#C1272D;}
	.st4{fill:#FBB03B;}
	.st5{fill:#FFCE6C;}
	.st6{fill:#333333;}
	.st7{fill:#4D4D4D;}
	.st8{fill:#666666;}
	.st9{fill:none;stroke:#FBB03B;stroke-width:9.9379;stroke-linecap:round;stroke-miterlimit:10;}
</style>
<g>
	<g>
		<path class="st0" d="M797.9,813H463.2c-20,0-36.3-16.2-36.3-36.3V416.1c0-20,16.2-36.3,36.3-36.3h334.7V813z"/>
		<rect x="797.9" y="771.4" class="st0" width="21.5" height="41.6"/>
		<rect x="797.9" y="379.9" class="st0" width="21.5" height="41.6"/>
		<path class="st1" d="M819.4,379.9L819.4,379.9c-11.9,0-21.5,9.6-21.5,21.5v70.2H841v-70.2C840.9,389.5,831.3,379.9,819.4,379.9z"
			/>
		<path class="st1" d="M819,812.8L819,812.8c-11.9,0-21.5-9.6-21.5-21.5V721h43.1v70.2C840.6,803.2,830.9,812.8,819,812.8z"/>
	</g>
	<line class="st2" x1="487.1" y1="495.1" x2="741.1" y2="495.1"/>
	<line class="st2" x1="487.1" y1="551" x2="741.1" y2="551"/>
	<line class="st2" x1="487.1" y1="606.8" x2="741.1" y2="606.8"/>
	<line class="st2" x1="487.1" y1="662.7" x2="607" y2="662.7"/>
	<line class="st2" x1="487.1" y1="718.6" x2="591.6" y2="718.6"/>
	<polygon class="st3" points="722.4,842.9 741,823 768.2,822.8 727.8,730.5 682,750.6 	"/>
	<polygon class="st3" points="664.4,842.9 645.7,823 618.5,822.8 658.9,730.5 704.7,750.6 	"/>
	<g>
		<path class="st4" d="M623.8,724.3c0-7,10.8-12.1,12.8-18.4c2.1-6.5-3.5-17,0.4-22.5c4-5.5,15.8-3.4,21.2-7.3
			c5.4-3.9,7-15.8,13.5-17.9c6.3-2,14.5,6.6,21.5,6.6s15.2-8.6,21.5-6.6c6.5,2.1,8.1,14,13.5,17.9c5.5,4,17.2,1.9,21.2,7.3
			c3.9,5.4-1.7,15.9,0.4,22.5c2,6.3,12.8,11.5,12.8,18.4c0,7-10.8,12.1-12.8,18.4c-2.1,6.5,3.5,17-0.4,22.5
			c-4,5.5-15.8,3.4-21.2,7.3c-5.4,3.9-7,15.8-13.5,17.9c-6.3,2-14.5-6.6-21.5-6.6s-15.2,8.6-21.5,6.6c-6.5-2.1-8.1-14-13.5-17.9
			c-5.5-4-17.2-1.9-21.2-7.3c-3.9-5.4,1.7-15.9-0.4-22.5C634.6,736.5,623.8,731.3,623.8,724.3z"/>
	</g>
	<g>
		<path class="st5" d="M646.6,724.3c0-4.7,7.3-8.2,8.6-12.4c1.4-4.4-2.4-11.5,0.3-15.1c2.7-3.7,10.6-2.3,14.3-4.9
			c3.6-2.7,4.7-10.6,9.1-12.1c4.2-1.4,9.8,4.4,14.5,4.4s10.2-5.8,14.5-4.4c4.4,1.4,5.5,9.4,9.1,12.1c3.7,2.7,11.6,1.3,14.3,4.9
			c2.7,3.6-1.1,10.7,0.3,15.1c1.4,4.2,8.6,7.7,8.6,12.4s-7.3,8.2-8.6,12.4c-1.4,4.4,2.4,11.5-0.3,15.1c-2.7,3.7-10.6,2.3-14.3,4.9
			c-3.6,2.7-4.7,10.6-9.1,12.1c-4.2,1.4-9.8-4.4-14.5-4.4s-10.2,5.8-14.5,4.4c-4.4-1.4-5.5-9.4-9.1-12.1c-3.7-2.7-11.6-1.3-14.3-4.9
			c-2.7-3.6,1.1-10.7-0.3-15.1C653.8,732.5,646.6,729,646.6,724.3z"/>
	</g>
	<g>
		<path class="st6" d="M684.5,436.5c0,4.8-1.4,9.3-5.4,12.1c-19.6,13.9-85.8,72.9-216.9,72.9s-197.9-58.9-217.6-72.9
			c-3.9-2.8-6.5-7.3-6.5-12.1V268.1h446.4V436.5z"/>
		<path class="st7" d="M538.3,268.1v246.2c81.4-16.2,125.4-54.7,140.8-65.7c3.9-2.8,5.4-7.3,5.4-12.1V268.1H538.3z"/>
	</g>
	<polygon points="810.3,287.5 461.3,443.4 119.1,287.3 119.1,268.1 810.3,268.3 	"/>
	<polygon class="st7" points="809.9,268.3 460.9,419.5 119.1,268.3 460.9,117.1 	"/>
	<polygon class="st8" points="747.7,241.4 463.1,418.7 810.3,268.3 	"/>
	<path class="st4" d="M260.8,419.6l-13.2,160c-0.3,3.2,2.2,5.8,5.4,5.8h34.1c3.1,0,5.6-2.6,5.4-5.8l-11.3-160.1
		C280.6,413.3,261.5,413.3,260.8,419.6z"/>
	<polyline class="st9" points="461.7,265 270.6,354 270.6,411.9 	"/>
	
		<ellipse transform="matrix(5.963057e-02 -0.9982 0.9982 5.963057e-02 -156.7957 657.6389)" class="st4" cx="270.7" cy="412" rx="17.4" ry="17.4"/>
</g>
</svg>
